<svg width="32" height="32" viewBox="0 0 32 32" fill="none" xmlns="http://www.w3.org/2000/svg"><rect width="32" height="32" rx="16" fill="#FF2F64"/><path fill-rule="evenodd" clip-rule="evenodd" d="M9.2 9.3a.7.7 0 0 0 0 1.3h1.7l.5 2.3 1 5a1.8 1.8 0 0 0 1.8 1.4h5.6a1.8 1.8 0 0 0 1.8-1.5l1-4.9a.7.7 0 0 0-.7-.8h-9.3l-.5-2.3c0-.3-.3-.6-.6-.6H9.2Zm4.5 8.2-.8-4H21l-.8 4a.5.5 0 0 1-.5.4h-5.6a.5.5 0 0 1-.5-.4Zm-1.1 4a1.2 1.2 0 1 1 2.4 0 1.2 1.2 0 0 1-2.4 0Zm6.3 0a1.2 1.2 0 1 1 2.5 0 1.2 1.2 0 0 1-2.5 0Z" fill="#FCFCFC"/></svg>